# This file uses centimeters as units for non-parametric coordinates.

g default
v 2.500000 -0.000000 5.000000
v 2.500000 0.000000 -5.000000
v -2.500000 4.799996 5.000000
v -2.500000 4.799996 -5.000000
v -2.352175 -0.000000 5.000000
v -2.371470 0.001265 5.000000
v -2.390435 0.005037 5.000000
v -2.408745 0.011253 5.000000
v -2.426087 0.019805 5.000000
v -2.442165 0.030548 5.000000
v -2.456703 0.043297 5.000000
v -2.469452 0.057835 5.000000
v -2.480195 0.073913 5.000000
v -2.488748 0.091255 5.000000
v -2.494963 0.109565 5.000000
v -2.498735 0.128530 5.000000
v -2.500000 0.147825 5.000000
v -2.500000 0.147825 -5.000000
v -2.498735 0.128530 -5.000000
v -2.494963 0.109565 -5.000000
v -2.488748 0.091255 -5.000000
v -2.480195 0.073913 -5.000000
v -2.469452 0.057835 -5.000000
v -2.456703 0.043297 -5.000000
v -2.442165 0.030548 -5.000000
v -2.426087 0.019805 -5.000000
v -2.408745 0.011253 -5.000000
v -2.390435 0.005037 -5.000000
v -2.371470 0.001265 -5.000000
v -2.352175 0.000000 -5.000000
vt 1.000000 0.030797
vt 1.000000 1.000000
vt 0.000000 1.000000
vt 0.029565 0.000000
vt 1.000000 0.000000
vt 1.000000 1.000000
vt 0.000000 0.030796
vt 0.029565 1.000000
vt 0.027171 -0.000000
vt 0.024017 -0.000000
vt 0.019763 -0.000000
vt 0.014322 -0.000000
vt 0.007710 -0.000000
vt 0.000000 0.000000
vt -0.000000 0.004327
vt -0.000000 0.009083
vt -0.000000 0.014193
vt -0.000000 0.019573
vt -0.000000 0.025138
vt 0.816285 0.208854
vt 0.635586 0.383989
vt 0.460861 0.553333
vt 0.294951 0.714133
vt 0.140522 0.863806
vt 0.000000 1.000000
vt 0.007710 1.000000
vt 0.014322 1.000000
vt 0.019763 1.000000
vt 0.024017 1.000000
vt 0.027171 1.000000
vn 0.000260 1.000000 0.000000
vn 0.000260 1.000000 0.000000
vn 0.000000 1.000000 0.000000
vn 0.000000 1.000000 0.000000
vn 1.000000 0.000271 0.000000
vn 1.000000 0.000271 0.000000
vn 1.000000 0.000000 0.000000
vn 1.000000 0.000000 0.000000
vn 0.991445 0.130527 0.000000
vn 0.991445 0.130527 0.000000
vn 0.965926 0.258818 0.000000
vn 0.965926 0.258818 0.000000
vn 0.923881 0.382680 0.000000
vn 0.923881 0.382680 0.000000
vn 0.866024 0.500003 0.000000
vn 0.866024 0.500003 0.000000
vn 0.793352 0.608763 0.000000
vn 0.793352 0.608763 0.000000
vn 0.707107 0.707107 0.000000
vn 0.707107 0.707107 0.000000
vn 0.608761 0.793354 0.000000
vn 0.608761 0.793354 0.000000
vn 0.500001 0.866025 0.000000
vn 0.500001 0.866025 0.000000
vn 0.382686 0.923879 0.000000
vn 0.382686 0.923879 0.000000
vn 0.258819 0.965926 0.000000
vn 0.258819 0.965926 0.000000
vn 0.130526 0.991445 0.000000
vn 0.130526 0.991445 0.000000
g pPlane1
f 30/8/1 5/4/2 1/5/3 2/6/4
f 17/7/5 18/1/6 4/2/7 3/3/8
f 17/7/5 16/19/9 19/20/10 18/1/6
f 16/19/9 15/18/11 20/21/12 19/20/10
f 15/18/11 14/17/13 21/22/14 20/21/12
f 14/17/13 13/16/15 22/23/16 21/22/14
f 13/16/15 12/15/17 23/24/18 22/23/16
f 12/15/17 11/14/19 24/25/20 23/24/18
f 11/14/19 10/13/21 25/26/22 24/25/20
f 10/13/21 9/12/23 26/27/24 25/26/22
f 9/12/23 8/11/25 27/28/26 26/27/24
f 8/11/25 7/10/27 28/29/28 27/28/26
f 7/10/27 6/9/29 29/30/30 28/29/28
f 6/9/29 5/4/2 30/8/1 29/30/30
