# This file uses centimeters as units for non-parametric coordinates.

g default1
v -1.000000 0.000000 1.000000
v 1.000000 0.000000 1.000000
v -1.000000 0.300000 1.000000
v 1.000000 0.300000 1.000000
v -1.000000 0.300000 -1.000000
v 1.000000 0.300000 -1.000000
v -1.000000 0.000000 -1.000000
v 1.000000 0.000000 -1.000000
v -1.000000 0.300000 0.800000
v 1.000000 0.300000 0.800000
v 1.000000 0.300000 -0.800000
v -1.000000 0.300000 -0.800000
v -0.800000 0.300000 1.000000
v 0.800000 0.300000 1.000000
v -0.800000 0.300000 -1.000000
v 0.800000 0.300000 -1.000000
v 1.000000 0.600000 0.800000
v 1.000000 0.600000 -0.800000
v 1.000000 0.300000 1.000000
v 1.000000 0.300000 -1.000000
vt 0.000000 0.000000
vt 1.000000 0.000000
vt 1.000000 1.000000
vt 0.000000 1.000000
vt 0.000000 2.000000
vt 1.000000 2.000000
vt 1.000000 3.000000
vt 0.000000 3.000000
vt 1.000000 4.000000
vt 0.000000 4.000000
vt 2.000000 0.000000
vt 1.000000 2.000000
vt 1.000000 1.000000
vt -1.000000 0.000000
vt -1.000000 1.000000
vt 0.000000 1.000000
vt 0.000000 2.000000
vt 1.000000 1.000000
vt 0.000000 1.000000
vt 0.000000 2.000000
vt 1.000000 2.000000
vt 1.000000 1.000000
vt 1.000000 1.000000
vt 1.000000 2.000000
vt 1.000000 2.000000
vn 0.000000 0.000000 1.000000
vn 0.000000 0.000000 1.000000
vn 0.000000 0.000000 1.000000
vn 0.000000 0.000000 1.000000
vn 0.000000 0.000000 -1.000000
vn 0.000000 0.000000 -1.000000
vn 0.000000 0.000000 -1.000000
vn 0.000000 0.000000 -1.000000
vn 0.000000 -1.000000 0.000000
vn 0.000000 -1.000000 0.000000
vn 0.000000 -1.000000 0.000000
vn 0.000000 -1.000000 0.000000
vn 1.000000 -0.000000 0.000000
vn 1.000000 -0.000000 0.000000
vn 1.000000 -0.000000 0.000000
vn 1.000000 -0.000000 0.000000
vn 1.000000 -0.000000 0.000000
vn 1.000000 -0.000000 0.000000
vn -1.000000 0.000000 0.000000
vn -1.000000 0.000000 0.000000
vn -1.000000 0.000000 0.000000
vn -1.000000 0.000000 0.000000
vn 0.000000 -0.000000 0.000000
vn 0.000000 -0.000000 0.000000
vn 0.000000 -1.000000 0.000000
vn 0.000000 -1.000000 0.000000
vn 0.000000 0.000000 -0.000000
vn 0.000000 0.000000 -0.000000
vn 0.000000 0.000000 -0.000000
vn 0.000000 0.000000 -0.000000
vn 0.000000 0.000000 0.000000
vn 0.000000 0.000000 0.000000
vn 0.000000 0.000000 0.000000
vn 0.000000 0.000000 0.000000
vn 0.000000 0.000000 0.000000
vn 1.000000 0.000000 0.000000
vn 1.000000 0.000000 0.000000
vn 0.000000 0.000000 0.000000
vn 1.000000 0.000000 0.000000
vn 1.000000 0.000000 0.000000
vn 1.000000 0.000000 0.000000
vn 1.000000 0.000000 0.000000
vn 1.000000 0.000000 0.000000
vn 0.000000 0.000000 0.000000
vn 0.000000 0.000000 0.000000
vn 1.000000 0.000000 0.000000
g initialShadingGroup initialShadingGroup1 pCube1 polySurface2 polySurface4 polySurface5 polySurface7 polySurface1
f 1/1/1 2/2/2 4/3/3 3/4/4
f 5/5/5 6/6/6 8/7/7 7/8/8
f 7/8/9 8/7/10 2/9/11 1/10/12
f 4/3/13 2/2/14 8/11/15 6/6/16 11/12/17 10/13/18
f 7/14/19 1/1/20 3/4/21 5/15/22
f 5/5/23 3/4/24 9/16/25 12/17/26
f 3/4/27 4/3/28 14/18/29 13/19/30
f 6/6/31 5/5/32 15/20/33 16/21/34
g initialShadingGroup initialShadingGroup1 pCube1 polySurface2 polySurface3 polySurface4 polySurface5 polySurface6 polySurface7 polySurface1
f 4/3/35 10/13/36 17/22/37 19/23/38
f 10/13/39 11/12/40 18/24/41 17/22/42
f 11/12/43 6/6/44 20/25/45 18/24/46
g default1
v -0.800000 0.300000 0.800000
v 0.800000 0.600000 0.800000
v 0.800000 0.600000 -0.800000
v -0.800000 0.300000 -0.800000
v -0.800000 0.300000 1.000000
v 0.800000 0.300000 1.000000
v 0.800000 0.300000 -1.000000
v -0.800000 0.300000 -1.000000
v -1.000000 0.300000 -0.800000
v -1.000000 0.300000 0.800000
v -1.000000 0.300000 1.000000
v -1.000000 0.300000 -1.000000
v 1.000000 0.600000 0.800000
v 1.000000 0.600000 -0.800000
v 1.000000 0.300000 1.000000
v 1.000000 0.300000 -1.000000
vt 0.000000 1.000000
vt 1.000000 1.000000
vt 1.000000 2.000000
vt 0.000000 2.000000
vt 0.000000 1.000000
vt 1.000000 1.000000
vt 1.000000 2.000000
vt 0.000000 2.000000
vt 1.000000 1.000000
vt 1.000000 2.000000
vt 0.000000 2.000000
vt 0.000000 1.000000
vt 1.000000 1.000000
vt 0.000000 1.000000
vt 0.000000 2.000000
vt 1.000000 2.000000
vn -0.184289 0.982872 0.000000
vn -0.184289 0.982872 0.000000
vn -0.184289 0.982872 0.000000
vn -0.184289 0.982872 0.000000
vn -0.074790 0.797759 0.598320
vn -0.074790 0.797759 0.598320
vn -0.074790 0.797759 0.598320
vn -0.074790 0.797759 0.598320
vn -0.074790 0.797759 -0.598320
vn -0.074790 0.797759 -0.598320
vn -0.074790 0.797759 -0.598320
vn -0.074790 0.797759 -0.598320
vn 0.000000 1.000000 0.000000
vn 0.000000 1.000000 0.000000
vn 0.000000 1.000000 0.000000
vn 0.000000 1.000000 0.000000
vn 0.000000 1.000000 0.000000
vn 0.000000 1.000000 0.000000
vn 0.000000 1.000000 0.000000
vn 0.000000 1.000000 0.000000
vn 0.000000 0.554700 0.832050
vn 0.000000 0.554700 0.832050
vn 0.000000 0.554700 0.832050
vn 0.000000 0.554700 0.832050
vn 0.000000 1.000000 0.000000
vn 0.000000 1.000000 0.000000
vn 0.000000 1.000000 0.000000
vn 0.000000 1.000000 0.000000
vn 0.000000 1.000000 0.000000
vn 0.000000 1.000000 0.000000
vn 0.000000 1.000000 0.000000
vn 0.000000 1.000000 0.000000
vn 0.000000 0.554700 -0.832050
vn 0.000000 0.554700 -0.832050
vn 0.000000 0.554700 -0.832050
vn 0.000000 0.554700 -0.832050
g initialShadingGroup initialShadingGroup1 pCube1 polySurface3 polySurface5 polySurface6 polySurface1 polySurface8
f 21/26/47 22/27/48 23/28/49 24/29/50
f 25/30/51 26/31/52 22/27/53 21/26/54
f 27/32/55 28/33/56 24/29/57 23/28/58
f 33/34/59 34/35/60 23/28/61 22/27/62
f 29/36/63 30/37/64 21/26/65 24/29/66
f 35/38/67 33/34/68 22/27/69 26/31/70
f 30/37/71 31/39/72 25/30/73 21/26/74
f 32/40/75 29/36/76 24/29/77 28/33/78
f 34/35/79 36/41/80 27/32/81 23/28/82
