# This file uses centimeters as units for non-parametric coordinates.

g default1
v -1.000000 0.000000 1.000000
v 1.000000 0.000000 1.000000
v -1.000000 0.300000 1.000000
v 1.000000 0.300000 1.000000
v -1.000000 0.300000 -1.000000
v 1.000000 0.300000 -1.000000
v -1.000000 0.000000 -1.000000
v 1.000000 0.000000 -1.000000
v -1.000000 0.300000 0.800000
v 1.000000 0.300000 0.800000
v 1.000000 0.300000 -0.800000
v -1.000000 0.300000 -0.800000
v -0.800000 0.300000 1.000000
v 0.800000 0.300000 1.000000
v -0.800000 0.300000 -1.000000
v 0.800000 0.300000 -1.000000
vt 0.000000 0.000000
vt 1.000000 0.000000
vt 1.000000 1.000000
vt 0.000000 1.000000
vt 0.000000 2.000000
vt 1.000000 2.000000
vt 1.000000 3.000000
vt 0.000000 3.000000
vt 1.000000 4.000000
vt 0.000000 4.000000
vt 2.000000 0.000000
vt 2.000000 1.000000
vt -1.000000 0.000000
vt -1.000000 1.000000
vt 1.000000 2.000000
vt 1.000000 1.000000
vt 0.000000 1.000000
vt 0.000000 2.000000
vt 1.000000 1.000000
vt 0.000000 1.000000
vt 0.000000 2.000000
vt 1.000000 2.000000
vn 0.000000 0.000000 1.000000
vn 0.000000 0.000000 1.000000
vn 0.000000 0.000000 1.000000
vn 0.000000 0.000000 1.000000
vn 0.000000 0.000000 -1.000000
vn 0.000000 0.000000 -1.000000
vn 0.000000 0.000000 -1.000000
vn 0.000000 0.000000 -1.000000
vn 0.000000 -1.000000 0.000000
vn 0.000000 -1.000000 0.000000
vn 0.000000 -1.000000 0.000000
vn 0.000000 -1.000000 0.000000
vn 1.000000 0.000000 0.000000
vn 1.000000 0.000000 0.000000
vn 1.000000 0.000000 0.000000
vn 1.000000 0.000000 0.000000
vn -1.000000 0.000000 0.000000
vn -1.000000 0.000000 0.000000
vn -1.000000 0.000000 0.000000
vn -1.000000 0.000000 0.000000
vn 0.000000 0.000000 0.000000
vn 0.000000 0.000000 0.000000
vn 0.000000 0.000000 0.000000
vn 0.000000 0.000000 0.000000
vn 0.000000 0.000000 0.000000
vn 0.000000 0.000000 0.000000
vn 0.000000 0.000000 0.000000
vn 0.000000 0.000000 0.000000
vn 0.000000 0.000000 0.000000
vn 0.000000 0.000000 0.000000
vn 0.000000 0.000000 0.000000
vn 0.000000 0.000000 0.000000
vn 0.000000 0.000000 0.000000
vn 0.000000 0.000000 0.000000
vn 0.000000 0.000000 0.000000
vn 0.000000 0.000000 0.000000
g initialShadingGroup pCube1 polySurface2 polySurface4 polySurface1
f 1/1/1 2/2/2 4/3/3 3/4/4
f 5/5/5 6/6/6 8/7/7 7/8/8
f 7/8/9 8/7/10 2/9/11 1/10/12
f 2/2/13 8/11/14 6/12/15 4/3/16
f 7/13/17 1/1/18 3/4/19 5/14/20
f 4/3/21 6/6/22 11/15/23 10/16/24
f 5/5/25 3/4/26 9/17/27 12/18/28
f 3/4/29 4/3/30 14/19/31 13/20/32
f 6/6/33 5/5/34 15/21/35 16/22/36
g default1
v -0.800000 0.300000 0.800000
v 0.800000 0.300000 0.800000
v 0.800000 0.300000 -0.800000
v -0.800000 0.300000 -0.800000
v -0.800000 0.300000 1.000000
v 0.800000 0.300000 1.000000
v 0.800000 0.300000 -1.000000
v -0.800000 0.300000 -1.000000
v 1.000000 0.300000 0.800000
v 1.000000 0.300000 -0.800000
v -1.000000 0.300000 -0.800000
v -1.000000 0.300000 0.800000
v 1.000000 0.300000 1.000000
v -1.000000 0.300000 1.000000
v -1.000000 0.300000 -1.000000
v 1.000000 0.300000 -1.000000
vt 0.000000 1.000000
vt 1.000000 1.000000
vt 1.000000 2.000000
vt 0.000000 2.000000
vt 0.000000 1.000000
vt 1.000000 1.000000
vt 1.000000 2.000000
vt 0.000000 2.000000
vt 1.000000 1.000000
vt 1.000000 2.000000
vt 0.000000 2.000000
vt 0.000000 1.000000
vt 1.000000 1.000000
vt 0.000000 1.000000
vt 0.000000 2.000000
vt 1.000000 2.000000
vn 0.000000 1.000000 0.000000
vn 0.000000 1.000000 0.000000
vn 0.000000 1.000000 0.000000
vn 0.000000 1.000000 0.000000
vn 0.000000 1.000000 0.000000
vn 0.000000 1.000000 0.000000
vn 0.000000 1.000000 0.000000
vn 0.000000 1.000000 0.000000
vn 0.000000 1.000000 0.000000
vn 0.000000 1.000000 0.000000
vn 0.000000 1.000000 0.000000
vn 0.000000 1.000000 0.000000
vn 0.000000 1.000000 0.000000
vn 0.000000 1.000000 0.000000
vn 0.000000 1.000000 0.000000
vn 0.000000 1.000000 0.000000
vn 0.000000 1.000000 0.000000
vn 0.000000 1.000000 0.000000
vn 0.000000 1.000000 0.000000
vn 0.000000 1.000000 0.000000
vn 0.000000 1.000000 0.000000
vn 0.000000 1.000000 0.000000
vn 0.000000 1.000000 0.000000
vn 0.000000 1.000000 0.000000
vn 0.000000 1.000000 0.000000
vn 0.000000 1.000000 0.000000
vn 0.000000 1.000000 0.000000
vn 0.000000 1.000000 0.000000
vn 0.000000 1.000000 0.000000
vn 0.000000 1.000000 0.000000
vn 0.000000 1.000000 0.000000
vn 0.000000 1.000000 0.000000
vn 0.000000 1.000000 0.000000
vn 0.000000 1.000000 0.000000
vn 0.000000 1.000000 0.000000
vn 0.000000 1.000000 0.000000
g initialShadingGroup pCube1 polySurface3 polySurface1 polySurface5
f 17/23/37 18/24/38 19/25/39 20/26/40
f 21/27/41 22/28/42 18/24/43 17/23/44
f 23/29/45 24/30/46 20/26/47 19/25/48
f 25/31/49 26/32/50 19/25/51 18/24/52
f 27/33/53 28/34/54 17/23/55 20/26/56
f 29/35/57 25/31/58 18/24/59 22/28/60
f 28/34/61 30/36/62 21/27/63 17/23/64
f 31/37/65 27/33/66 20/26/67 24/30/68
f 26/32/69 32/38/70 23/29/71 19/25/72
